<svg id="visual" viewBox="0 0 900 600" width="900" height="600" xmlns="http://www.w3.org/2000/svg" xmlns:xlink="http://www.w3.org/1999/xlink" version="1.1"><rect x="0" y="0" width="900" height="600" fill="#FF0066"></rect><g transform="translate(466.1713262131657 291.3900680712032)"><path d="M103.5 -134.1C148.2 -110 208.2 -98.5 218.9 -70.1C229.5 -41.6 190.8 3.9 168.6 49.3C146.3 94.7 140.5 140 115.1 177.6C89.7 215.2 44.9 245.1 3 240.9C-38.8 236.7 -77.6 198.5 -125.1 168.1C-172.7 137.7 -229 115.2 -246.5 76.5C-264.1 37.8 -242.8 -17.1 -222.7 -70.3C-202.6 -123.5 -183.6 -175 -146.7 -201.7C-109.7 -228.3 -54.9 -230.2 -12.7 -212.6C29.4 -195.1 58.8 -158.2 103.5 -134.1" fill="#BB004B"></path></g></svg>